<svg width="370" height="91" viewBox="0 0 370 91" fill="none" xmlns="http://www.w3.org/2000/svg">
<path d="M32.5483 52.15C30.4483 52.15 28.3483 51.85 26.3483 51.15C25.9483 51.05 25.5483 50.85 25.0483 50.65C20.2483 48.65 16.5483 44.95 14.5483 40.25C12.5483 35.45 12.5483 30.25 14.4483 25.45C16.4483 20.65 20.1483 16.95 24.8483 14.95C29.6483 12.95 34.8483 12.95 39.6483 14.85C45.3483 17.15 49.3483 21.95 50.9483 27.45C56.5483 30.85 61.0483 35.65 64.0483 41.45V32.75C64.0483 20.25 56.5483 8.34999 44.3483 3.34999C36.5483 0.149986 27.8483 0.149985 20.0483 3.44998C12.2483 6.74998 6.14831 12.85 2.94831 20.75C1.34831 24.65 0.548309 28.75 0.548309 32.75C0.548309 36.95 1.34831 41.05 3.04831 45.05C6.34831 52.85 12.4483 58.95 20.2483 62.15C20.9483 62.45 21.6483 62.65 22.2483 62.95C25.5483 64.05 28.9483 64.55 32.4483 64.55C35.8483 64.55 38.6483 61.75 38.6483 58.35C38.8483 54.95 36.0483 52.15 32.5483 52.15Z" fill="#ED1A3B"/>
<path d="M61.7483 45.95C58.4483 38.15 52.3483 32.05 44.5483 28.85C43.8483 28.55 43.1483 28.35 42.5483 28.05C39.2483 26.95 35.8483 26.45 32.3483 26.45C28.9483 26.45 26.1483 29.25 26.1483 32.65C26.1483 36.05 28.9483 38.85 32.3483 38.85C34.4483 38.85 36.5483 39.15 38.5483 39.85C38.9483 39.95 39.3483 40.15 39.8483 40.35C44.6483 42.35 48.3483 46.05 50.3483 50.75C52.3483 55.55 52.3483 60.75 50.4483 65.55C48.4483 70.35 44.7483 74.05 40.0483 76.05C35.2483 78.05 30.0483 78.05 25.2483 76.15C19.5483 73.85 15.5483 69.05 13.9483 63.55C8.24832 60.15 3.74832 55.35 0.748322 49.55V58.25C0.748322 70.75 8.24832 82.65 20.4483 87.65C28.2483 90.85 36.9483 90.85 44.7483 87.55C52.5483 84.25 58.6483 78.15 61.8483 70.25C63.4483 66.35 64.2483 62.25 64.2483 58.25C64.2483 54.05 63.3483 49.85 61.7483 45.95Z" fill="#ED1A3B"/>
<path d="M109.648 34.65C106.248 40.75 99.3483 41.55 97.4483 41.75C96.1483 41.95 94.8483 42.05 93.5483 42.05C85.8483 42.05 81.5483 39.45 78.9483 37.35C78.0483 36.55 77.5483 36.05 76.4483 34.75C76.1483 34.45 76.2483 33.95 76.6483 33.65L82.8483 29.75C83.1483 29.55 83.5483 29.65 83.7483 29.85C84.0483 30.25 84.5483 30.65 85.0483 31.05C87.5483 33.15 91.3483 34.25 94.5483 34.25C94.9483 34.25 96.3483 34.25 97.5483 33.85C97.8483 33.75 101.648 32.65 101.648 29.75C101.648 26.15 96.4483 26.05 93.0483 25.55C91.2483 25.35 89.3483 25.05 87.5483 24.55C84.7483 23.85 82.1483 22.75 80.2483 20.45C79.8483 20.05 79.0483 19.05 78.6483 17.55C78.4483 17.05 78.1483 15.75 78.1483 14.15C78.1483 13.85 78.2483 12.55 78.3483 11.45C78.7483 8.94999 79.8483 7.05 81.6483 5.25C83.5483 3.45 87.3483 1.14999 93.7483 1.14999C96.1483 1.14999 101.248 1.44999 106.548 4.94999C107.748 5.74999 108.448 6.34999 110.148 7.84999C110.448 8.14999 110.448 8.64999 110.148 8.94999L104.248 13.15C103.948 13.35 103.548 13.35 103.348 13.05C101.448 11.25 99.9483 10.15 97.2483 9.25C97.2483 9.25 97.2483 9.25 97.1483 9.25C96.6483 9.15 95.1483 8.75 93.5483 8.75C89.5483 8.75 87.7483 11.05 87.7483 12.85C87.7483 13.85 88.3483 14.65 88.5483 14.85C89.8483 16.25 92.0483 16.25 95.6483 16.75C97.8483 17.05 99.9483 17.55 102.148 18.05C103.548 18.35 108.548 19.35 110.448 24.05C110.748 24.75 111.248 26.25 111.248 28.25C111.148 29.65 111.048 31.95 109.648 34.65Z" fill="#ED1A3B"/>
<path d="M133.548 10.75V40.45C133.548 40.85 133.248 41.15 132.848 41.15H124.448C124.048 41.15 123.748 40.85 123.748 40.45V10.75C123.748 10.35 123.448 10.05 123.048 10.05H114.348C113.948 10.05 113.648 9.75 113.648 9.35V3.15C113.648 2.75 113.948 2.45 114.348 2.45H142.848C143.248 2.45 143.548 2.75 143.548 3.15V9.35C143.548 9.75 143.248 10.05 142.848 10.05H134.248C133.848 10.05 133.548 10.35 133.548 10.75Z" fill="#ED1A3B"/>
<path d="M247.048 40.75L234.548 19.45C234.148 18.85 233.248 19.05 233.248 19.85L233.548 40.45C233.548 40.85 233.248 41.15 232.848 41.15H224.948C224.548 41.15 224.248 40.85 224.248 40.45V3.04999C224.248 2.64999 224.548 2.34999 224.948 2.34999H233.348C233.648 2.34999 233.848 2.44999 233.948 2.74999L246.448 24.35C246.848 24.95 247.748 24.75 247.748 23.95L247.448 3.04999C247.448 2.64999 247.748 2.34999 248.148 2.34999H256.048C256.448 2.34999 256.748 2.64999 256.748 3.04999V40.35C256.748 40.75 256.448 41.05 256.048 41.05H247.648C247.348 41.15 247.148 41.05 247.048 40.75Z" fill="#ED1A3B"/>
<path d="M302.748 40.45V3.04999C302.748 2.64999 303.048 2.34999 303.448 2.34999H330.748C331.148 2.34999 331.448 2.64999 331.448 3.04999V9.14999C331.448 9.54999 331.148 9.84999 330.748 9.84999H313.148C312.748 9.84999 312.448 10.15 312.448 10.55V16.25C312.448 16.65 312.748 16.95 313.148 16.95H329.448C329.848 16.95 330.148 17.25 330.148 17.65V23.55C330.148 23.95 329.848 24.25 329.448 24.25H313.148C312.748 24.25 312.448 24.55 312.448 24.95V32.75C312.448 33.15 312.748 33.45 313.148 33.45H330.748C331.148 33.45 331.448 33.75 331.448 34.15V40.35C331.448 40.75 331.148 41.05 330.748 41.05H303.548C303.148 41.15 302.748 40.85 302.748 40.45Z" fill="#ED1A3B"/>
<path d="M172.948 25.35C174.048 24.95 174.648 24.65 175.248 24.25C175.248 24.25 175.248 24.25 175.348 24.25C175.948 23.85 176.548 23.35 177.148 22.85C178.448 21.55 180.148 19.25 180.148 14.95C180.148 11.75 179.148 9.54999 178.648 8.44999C175.648 2.94999 169.448 2.54999 167.748 2.44999C166.648 2.34999 165.548 2.34999 164.448 2.34999H147.648C147.248 2.34999 146.948 2.64999 146.948 3.04999V40.35C146.948 40.75 147.248 41.05 147.648 41.05H156.048C156.448 41.05 156.748 40.75 156.748 40.35V27.25V20.05V10.25C156.748 9.84999 157.048 9.54999 157.448 9.54999H164.948C166.648 9.54999 170.548 9.64999 170.548 14.75C170.548 15.75 170.448 18.75 167.348 19.75C166.248 20.15 165.148 20.15 164.748 20.15H160.048C159.548 20.15 159.148 20.75 159.448 21.25L170.448 40.85C170.548 41.05 170.848 41.25 171.048 41.25H180.048C180.548 41.25 180.948 40.65 180.648 40.15L172.548 26.35C172.348 25.95 172.548 25.55 172.948 25.35Z" fill="#ED1A3B"/>
<path d="M206.748 2.34999H197.648C197.348 2.34999 197.048 2.54999 196.948 2.84999L183.048 40.15C182.848 40.65 183.248 41.15 183.748 41.15H193.048H193.248L201.248 13.85C201.448 13.15 202.348 13.15 202.648 13.85L206.648 26.95C206.748 27.45 206.448 27.85 205.948 27.85H200.848C200.348 27.85 199.948 28.45 200.248 28.95L203.048 33.95C203.148 34.15 203.448 34.35 203.648 34.35H208.348C208.648 34.35 208.948 34.55 209.048 34.85L211.048 41.25H211.248H220.548C221.048 41.25 221.348 40.75 221.248 40.25L207.448 2.84999C207.248 2.54999 207.048 2.34999 206.748 2.34999Z" fill="#ED1A3B"/>
<path d="M361.748 25.35C362.848 24.95 363.448 24.65 364.048 24.25C364.048 24.25 364.048 24.25 364.148 24.25C364.748 23.85 365.348 23.35 365.948 22.85C367.248 21.55 368.948 19.25 368.948 14.95C368.948 11.75 367.948 9.54999 367.448 8.44999C364.448 2.94999 358.248 2.54999 356.548 2.44999C355.448 2.34999 354.348 2.34999 353.248 2.34999H336.448C336.048 2.34999 335.748 2.64999 335.748 3.04999V40.35C335.748 40.75 336.048 41.05 336.448 41.05H344.848C345.248 41.05 345.548 40.75 345.548 40.35V27.25V20.05V10.25C345.548 9.84999 345.848 9.54999 346.248 9.54999H353.748C355.448 9.54999 359.348 9.64999 359.348 14.75C359.348 15.75 359.248 18.75 356.148 19.75C355.048 20.15 353.948 20.15 353.548 20.15H348.748C348.248 20.15 347.848 20.75 348.148 21.25L359.148 40.85C359.248 41.05 359.548 41.25 359.748 41.25H368.748C369.248 41.25 369.648 40.65 369.348 40.15L361.448 26.35C361.248 25.95 361.348 25.55 361.748 25.35Z" fill="#ED1A3B"/>
<path d="M281.548 20.65L284.848 26.55C284.948 26.75 285.248 26.95 285.448 26.95H288.448C288.848 26.95 289.248 27.35 289.148 27.75C289.048 28.45 288.848 29.35 288.448 30.15C287.248 32.55 284.948 33.45 284.148 33.75C282.648 34.25 281.448 34.25 280.748 34.25C278.548 34.25 276.848 33.55 276.148 33.25C275.648 32.95 274.348 32.35 273.348 31.15C270.648 27.85 270.648 22.45 270.648 21.55C270.648 15.35 273.148 11.95 275.448 10.45C277.448 9.14999 280.048 9.05 280.748 9.05C281.848 9.05 284.848 9.14999 287.248 11.45C288.148 12.15 288.948 13.25 289.348 13.95C289.548 14.25 289.948 14.35 290.248 14.15L296.348 10.45C296.748 10.25 296.848 9.74999 296.548 9.44999C295.648 8.34999 294.848 7.34999 293.648 6.34999C291.648 4.54999 287.148 1.14999 279.948 1.14999C275.248 1.14999 271.948 2.64999 270.348 3.64999C261.348 8.74999 260.748 19.05 260.748 21.85C260.748 29.35 263.748 37.05 270.748 40.45C273.948 41.95 276.848 42.05 278.248 42.05C279.748 42.05 283.648 41.95 287.348 39.55C287.648 39.35 288.048 39.05 288.548 38.65C289.048 38.25 289.748 38.55 289.748 39.15V40.45C289.748 40.85 290.048 41.15 290.448 41.15H296.648C297.048 41.15 297.348 40.85 297.348 40.45V20.35C297.348 19.95 297.048 19.65 296.648 19.65H282.048C281.648 19.65 281.248 20.15 281.548 20.65Z" fill="#ED1A3B"/>
<path d="M109.648 82.25C106.248 88.35 99.3483 89.15 97.4483 89.35C96.1483 89.55 94.8483 89.65 93.5483 89.65C85.8483 89.65 81.5483 87.05 78.9483 84.95C78.0483 84.15 77.5483 83.65 76.4483 82.35C76.1483 82.05 76.2483 81.55 76.6483 81.35L82.8483 77.45C83.1483 77.25 83.4483 77.35 83.7483 77.55C84.0483 77.95 84.5483 78.35 85.0483 78.75C87.5483 80.85 91.3483 81.95 94.5483 81.95C94.9483 81.95 96.3483 81.95 97.5483 81.55C97.8483 81.45 101.648 80.35 101.648 77.45C101.648 73.85 96.4483 73.75 93.0483 73.25C91.2483 73.05 89.3483 72.75 87.5483 72.25C84.7483 71.55 82.1483 70.45 80.2483 68.15C79.8483 67.75 79.0483 66.75 78.6483 65.25C78.4483 64.75 78.1483 63.45 78.1483 61.85C78.1483 61.55 78.2483 60.25 78.3483 59.15C78.7483 56.65 79.8483 54.75 81.6483 52.95C83.5483 51.15 87.3483 48.85 93.7483 48.85C96.1483 48.85 101.248 49.15 106.548 52.65C107.748 53.45 108.448 54.05 110.148 55.55C110.448 55.85 110.448 56.35 110.148 56.65L104.248 60.95C103.948 61.15 103.648 61.15 103.348 60.85C101.448 59.05 99.9483 57.95 97.2483 57.05C97.2483 57.05 97.2483 57.05 97.1483 57.05C96.6483 56.95 95.1483 56.55 93.5483 56.55C89.5483 56.55 87.7483 58.85 87.7483 60.65C87.7483 61.65 88.3483 62.45 88.5483 62.65C89.8483 64.05 92.0483 64.05 95.6483 64.55C97.8483 64.85 99.9483 65.35 102.148 65.85C103.548 66.15 108.548 67.15 110.448 71.85C110.748 72.55 111.248 74.05 111.248 76.05C111.148 77.35 111.048 79.65 109.648 82.25Z" fill="#ED1A3B"/>
<path d="M145.948 85.85C143.848 87.55 140.148 89.95 133.748 89.95C131.348 89.95 124.948 89.55 120.048 84.45C114.848 78.95 114.548 71.65 114.548 69.25C114.548 67.25 114.848 61.75 118.248 56.75C120.248 53.85 124.748 48.85 133.748 48.85C141.148 48.85 145.548 52.15 147.548 54.25C151.248 58.05 153.348 64.45 153.348 69.75C153.248 75.65 150.748 81.95 145.948 85.85ZM141.148 60.55C140.648 59.85 139.548 58.55 137.448 57.65C135.848 56.95 134.348 56.95 133.748 56.95C131.648 56.95 130.148 57.65 129.448 58.05C125.548 60.25 124.148 65.05 124.148 69.15C124.148 74.45 125.748 77.25 127.348 78.95C129.048 80.75 131.348 81.75 133.848 81.75C135.148 81.75 138.148 81.45 140.548 78.85C142.748 76.45 143.548 73.45 143.648 70.35C143.748 65.45 142.248 62.15 141.148 60.55Z" fill="#ED1A3B"/>
<path d="M189.348 83.55C187.548 85.55 182.748 89.95 175.148 89.95C173.748 89.95 170.548 89.75 167.248 88.35C157.048 83.75 156.548 72.45 156.548 69.45C156.548 67.05 156.848 60.95 161.248 55.65C163.048 53.45 167.348 48.95 175.348 48.95C180.548 48.95 185.648 51.05 189.048 54.95C190.148 56.25 190.948 57.45 191.348 58.35C191.548 58.65 191.448 59.15 191.048 59.35L184.748 62.35C184.448 62.55 184.048 62.35 183.848 62.05C183.448 61.35 183.148 60.85 182.848 60.55C182.148 59.55 179.748 56.85 175.848 56.85C174.748 56.85 172.148 57.05 169.948 59.15C168.348 60.65 166.248 63.85 166.248 69.15C166.248 69.65 166.248 70.55 166.448 71.75C167.148 77.05 169.448 79.45 171.548 80.75C172.248 81.15 173.748 81.85 175.848 81.85C180.648 81.85 182.848 78.45 183.948 76.75C184.148 76.45 184.548 76.35 184.848 76.45L191.248 79.65C191.648 79.85 191.748 80.35 191.548 80.65C190.548 82.05 189.848 83.05 189.348 83.55Z" fill="#ED1A3B"/>
<path d="M226.948 83.55C225.148 85.55 220.348 89.95 212.748 89.95C211.348 89.95 208.148 89.75 204.848 88.35C194.648 83.75 194.148 72.45 194.148 69.45C194.148 67.05 194.448 60.95 198.848 55.65C200.648 53.45 204.948 48.95 212.948 48.95C218.148 48.95 223.248 51.05 226.648 54.95C227.748 56.25 228.548 57.45 228.948 58.35C229.148 58.65 229.048 59.15 228.648 59.35L222.248 62.55C221.948 62.75 221.548 62.55 221.348 62.25C220.948 61.55 220.648 61.05 220.348 60.75C219.648 59.75 217.248 57.05 213.348 57.05C212.248 57.05 209.648 57.25 207.448 59.35C205.848 60.85 203.748 64.05 203.748 69.35C203.748 69.85 203.748 70.75 203.948 71.95C204.648 77.25 206.948 79.65 209.048 80.95C209.748 81.35 211.248 82.05 213.348 82.05C218.148 82.05 220.348 78.65 221.448 76.95C221.648 76.65 222.048 76.55 222.348 76.65L228.748 79.85C229.148 80.05 229.248 80.55 229.048 80.85C228.148 82.05 227.448 83.05 226.948 83.55Z" fill="#ED1A3B"/>
<path d="M233.848 88.15V50.75C233.848 50.35 234.148 50.05 234.548 50.05H261.748C262.148 50.05 262.448 50.35 262.448 50.75V56.85C262.448 57.25 262.148 57.55 261.748 57.55H244.148C243.748 57.55 243.448 57.85 243.448 58.25V63.95C243.448 64.35 243.748 64.65 244.148 64.65H260.448C260.848 64.65 261.148 64.95 261.148 65.35V71.35C261.148 71.75 260.848 72.05 260.448 72.05H244.148C243.748 72.05 243.448 72.35 243.448 72.75V80.55C243.448 80.95 243.748 81.25 244.148 81.25H263.548C263.948 81.25 264.248 81.55 264.248 81.95V88.15C264.248 88.55 263.948 88.85 263.548 88.85H234.548C234.148 88.85 233.848 88.45 233.848 88.15Z" fill="#ED1A3B"/>
<path d="M294.548 73.05C295.648 72.65 296.348 72.35 296.848 71.95C296.848 71.95 296.848 71.95 296.948 71.95C297.548 71.55 298.148 71.05 298.748 70.55C300.048 69.25 301.748 66.95 301.748 62.65C301.748 59.45 300.748 57.25 300.248 56.15C297.248 50.65 291.048 50.25 289.348 50.15C288.248 50.05 287.148 50.05 286.048 50.05H269.248C268.848 50.05 268.548 50.35 268.548 50.75V88.15C268.548 88.55 268.848 88.85 269.248 88.85H277.648C278.048 88.85 278.348 88.55 278.348 88.15V75.05V67.85V58.05C278.348 57.65 278.648 57.35 279.048 57.35H286.548C288.248 57.35 292.148 57.45 292.148 62.55C292.148 63.55 292.048 66.55 288.948 67.55C287.848 67.95 286.748 67.95 286.348 67.95H281.548C281.048 67.95 280.648 68.55 280.948 68.95L291.948 88.55C292.048 88.75 292.348 88.95 292.548 88.95H301.548C302.048 88.95 302.448 88.35 302.148 87.95L294.248 74.25C293.948 73.65 294.148 73.15 294.548 73.05Z" fill="#ED1A3B"/>
</svg>
